<svg width="18" height="17" viewBox="0 0 18 17" fill="none" xmlns="http://www.w3.org/2000/svg">
  <path d="M14.6436 0.00407465C13.819 0.0442161 12.9978 0.402144 12.3555 1.02099C12.3421 1.03437 12.3287 1.04775 12.3154 1.06113C12.3137 1.06281 12.3037 1.05946 12.302 1.06113C12.2836 1.08288 12.2652 1.10462 12.2485 1.12804C12.2301 1.14978 12.2117 1.17152 12.1949 1.19494L4.13989 9.29013C4.12149 9.31187 4.1031 9.33362 4.08637 9.35703C3.3287 10.1783 3.34375 11.4778 4.13989 12.274C4.9561 13.0919 6.32091 13.0919 7.13712 12.274C7.17726 12.2338 7.21238 12.1887 7.24416 12.1402C7.28263 12.1117 7.31776 12.08 7.35121 12.0465L13.3858 6.09219C13.6551 5.83797 13.7304 5.43822 13.5715 5.10371C13.4126 4.7692 13.058 4.57351 12.69 4.62034C12.496 4.64543 12.317 4.73408 12.1816 4.87457L6.14696 10.8289C6.12188 10.859 6.10013 10.8891 6.08006 10.9225C6.0717 10.9276 6.06166 10.9309 6.0533 10.9359C6.04828 10.9443 6.04494 10.9543 6.03992 10.9627C5.99643 10.9895 5.95629 11.0212 5.9195 11.0564C5.75726 11.2186 5.51975 11.2203 5.35752 11.0564C5.19528 10.8941 5.1936 10.6583 5.35752 10.4944L13.533 2.27876C13.5514 2.25701 13.5698 2.23527 13.5865 2.21185C14.2907 1.5629 15.2306 1.56792 15.7541 2.09143C15.7909 2.12655 15.8311 2.15833 15.8746 2.18509C15.8796 2.19011 15.8829 2.19346 15.888 2.19847C15.913 2.23193 15.9398 2.2637 15.9682 2.29214C16.4583 2.7822 16.3763 3.81584 15.6872 4.54006C15.6739 4.55344 15.6605 4.56682 15.6471 4.5802L6.78923 13.6655C6.76079 13.6856 6.73403 13.709 6.70894 13.7325C5.5599 14.8815 3.58126 15.0203 2.48071 13.9198C1.40191 12.841 1.51397 10.8891 2.61452 9.73169C2.63291 9.71496 2.65131 9.69656 2.66804 9.67816L9.9604 2.46608C10.2297 2.21185 10.3049 1.81211 10.1461 1.4776C9.98716 1.14309 9.63258 0.947399 9.26462 0.99423C9.0706 1.01932 8.89163 1.10796 8.75616 1.24846L1.50394 8.4204C1.49056 8.43378 1.47718 8.44716 1.46379 8.46054C1.4454 8.48228 1.427 8.50403 1.41027 8.52744C-0.3225 10.3238 -0.55833 13.3043 1.26309 15.124C3.07113 16.9321 6.0349 16.7397 7.8329 15.0304C7.8513 15.017 7.8697 15.0036 7.88643 14.9902C7.89144 14.9852 7.89479 14.9819 7.89981 14.9768C7.90817 14.9685 7.91821 14.9584 7.92657 14.9501C7.92657 14.9451 7.92657 14.9417 7.92657 14.9367L7.98009 14.8832C7.99849 14.8614 8.01689 14.8397 8.03361 14.8163L16.8781 5.78444C16.9417 5.7259 16.9952 5.659 17.0387 5.58374C18.1677 4.29252 18.4135 2.32893 17.1725 1.08789C17.1507 1.0695 17.129 1.0511 17.1056 1.03437C17.0671 0.975832 17.0219 0.92231 16.9718 0.873806C16.3395 0.241578 15.4882 -0.0377392 14.6436 0.00407465Z" fill="#8E8E93"/>
</svg>
