<svg width="16" height="18" viewBox="0 0 16 18" fill="none" xmlns="http://www.w3.org/2000/svg">
<path d="M13.8334 2.25H10.7778V1.6875C10.7778 0.75702 10.0302 0 9.11117 0H6.88894C5.96995 0 5.22228 0.75702 5.22228 1.6875V2.25H2.16672C1.40089 2.25 0.777832 2.88084 0.777832 3.65625V5.625C0.777832 5.93564 1.02658 6.1875 1.33339 6.1875H1.637L2.11696 16.3928C2.15936 17.294 2.89061 18 3.78172 18H12.2184C13.1095 18 13.8408 17.294 13.8831 16.3928L14.3631 6.1875H14.6667C14.9735 6.1875 15.2223 5.93564 15.2223 5.625V3.65625C15.2223 2.88084 14.5992 2.25 13.8334 2.25ZM6.33339 1.6875C6.33339 1.37735 6.58262 1.125 6.88894 1.125H9.11117C9.41749 1.125 9.66672 1.37735 9.66672 1.6875V2.25H6.33339V1.6875ZM1.88894 3.65625C1.88894 3.50118 2.01356 3.375 2.16672 3.375H13.8334C13.9865 3.375 14.1112 3.50118 14.1112 3.65625V5.0625C13.94 5.0625 2.59842 5.0625 1.88894 5.0625V3.65625ZM12.7733 16.3393C12.7592 16.6397 12.5154 16.875 12.2184 16.875H3.78172C3.48467 16.875 3.24092 16.6397 3.22683 16.3393L2.74936 6.1875H13.2507L12.7733 16.3393Z" fill="#C4C4C4"/>
<path d="M8.00001 15.75C8.30682 15.75 8.55557 15.4981 8.55557 15.1875V7.875C8.55557 7.56436 8.30682 7.3125 8.00001 7.3125C7.69321 7.3125 7.44446 7.56436 7.44446 7.875V15.1875C7.44446 15.4981 7.69317 15.75 8.00001 15.75Z" fill="#C4C4C4"/>
<path d="M10.7778 15.75C11.0847 15.75 11.3334 15.4981 11.3334 15.1875V7.875C11.3334 7.56436 11.0847 7.3125 10.7778 7.3125C10.471 7.3125 10.2223 7.56436 10.2223 7.875V15.1875C10.2223 15.4981 10.471 15.75 10.7778 15.75Z" fill="#C4C4C4"/>
<path d="M5.2223 15.75C5.52911 15.75 5.77786 15.4981 5.77786 15.1875V7.875C5.77786 7.56436 5.52911 7.3125 5.2223 7.3125C4.9155 7.3125 4.66675 7.56436 4.66675 7.875V15.1875C4.66675 15.4981 4.91546 15.75 5.2223 15.75Z" fill="#C4C4C4"/>
</svg>
