<svg width="16" height="16" viewBox="0 0 16 16" fill="none" xmlns="http://www.w3.org/2000/svg">
<mask id="path-1-outside-1_117:2445" maskUnits="userSpaceOnUse" x="0" y="0" width="16" height="16" fill="black">
<rect fill="white" width="16" height="16"/>
<path d="M13.3924 1.56356C12.6397 0.812147 11.4209 0.812147 10.6682 1.56356L9.98631 2.24928L2.72734 9.50508L2.71191 9.52063C2.70818 9.52437 2.70818 9.52834 2.7042 9.52834C2.69649 9.53991 2.68492 9.55136 2.67732 9.56294C2.67732 9.56679 2.67335 9.56679 2.67335 9.57065C2.66563 9.58222 2.6619 9.58994 2.65406 9.60151C2.65033 9.60536 2.65033 9.6091 2.64647 9.61308C2.64261 9.62465 2.63876 9.63236 2.63478 9.64394C2.63478 9.64767 2.63104 9.64767 2.63104 9.65165L1.0205 14.4952C0.973251 14.6331 1.00917 14.7858 1.11294 14.8881C1.18585 14.9601 1.2842 15.0004 1.38652 15C1.42835 14.9993 1.4698 14.9928 1.50982 14.9807L6.34917 13.3662C6.35291 13.3662 6.35291 13.3662 6.35689 13.3624C6.36906 13.3588 6.38075 13.3536 6.39148 13.3469C6.39449 13.3465 6.39714 13.3452 6.39931 13.3431C6.41076 13.3354 6.42619 13.3276 6.43776 13.3199C6.44921 13.3123 6.4609 13.3007 6.47247 13.293C6.47632 13.289 6.48006 13.289 6.48006 13.2853C6.48404 13.2814 6.49175 13.2777 6.49561 13.2698L14.4365 5.32821C15.1878 4.57547 15.1878 3.35651 14.4365 2.60389L13.3924 1.56356ZM6.22588 12.4606L3.54424 9.77881L10.256 3.06638L12.9377 5.74815L6.22588 12.4606ZM3.16653 10.4917L5.50925 12.8345L1.99143 14.0058L3.16653 10.4917ZM13.8933 4.78869L13.4848 5.20104L10.8031 2.51903L11.2155 2.10681C11.6666 1.65601 12.3979 1.65601 12.8491 2.10681L13.897 3.15485C14.3448 3.60806 14.3431 4.33765 13.8933 4.78869Z"/>
</mask>
<path d="M13.3924 1.56356C12.6397 0.812147 11.4209 0.812147 10.6682 1.56356L9.98631 2.24928L2.72734 9.50508L2.71191 9.52063C2.70818 9.52437 2.70818 9.52834 2.7042 9.52834C2.69649 9.53991 2.68492 9.55136 2.67732 9.56294C2.67732 9.56679 2.67335 9.56679 2.67335 9.57065C2.66563 9.58222 2.6619 9.58994 2.65406 9.60151C2.65033 9.60536 2.65033 9.6091 2.64647 9.61308C2.64261 9.62465 2.63876 9.63236 2.63478 9.64394C2.63478 9.64767 2.63104 9.64767 2.63104 9.65165L1.0205 14.4952C0.973251 14.6331 1.00917 14.7858 1.11294 14.8881C1.18585 14.9601 1.2842 15.0004 1.38652 15C1.42835 14.9993 1.4698 14.9928 1.50982 14.9807L6.34917 13.3662C6.35291 13.3662 6.35291 13.3662 6.35689 13.3624C6.36906 13.3588 6.38075 13.3536 6.39148 13.3469C6.39449 13.3465 6.39714 13.3452 6.39931 13.3431C6.41076 13.3354 6.42619 13.3276 6.43776 13.3199C6.44921 13.3123 6.4609 13.3007 6.47247 13.293C6.47632 13.289 6.48006 13.289 6.48006 13.2853C6.48404 13.2814 6.49175 13.2777 6.49561 13.2698L14.4365 5.32821C15.1878 4.57547 15.1878 3.35651 14.4365 2.60389L13.3924 1.56356ZM6.22588 12.4606L3.54424 9.77881L10.256 3.06638L12.9377 5.74815L6.22588 12.4606ZM3.16653 10.4917L5.50925 12.8345L1.99143 14.0058L3.16653 10.4917ZM13.8933 4.78869L13.4848 5.20104L10.8031 2.51903L11.2155 2.10681C11.6666 1.65601 12.3979 1.65601 12.8491 2.10681L13.897 3.15485C14.3448 3.60806 14.3431 4.33765 13.8933 4.78869Z" fill="#C4C4C4"/>
<path d="M13.3924 1.56356C12.6397 0.812147 11.4209 0.812147 10.6682 1.56356L9.98631 2.24928L2.72734 9.50508L2.71191 9.52063C2.70818 9.52437 2.70818 9.52834 2.7042 9.52834C2.69649 9.53991 2.68492 9.55136 2.67732 9.56294C2.67732 9.56679 2.67335 9.56679 2.67335 9.57065C2.66563 9.58222 2.6619 9.58994 2.65406 9.60151C2.65033 9.60536 2.65033 9.6091 2.64647 9.61308C2.64261 9.62465 2.63876 9.63236 2.63478 9.64394C2.63478 9.64767 2.63104 9.64767 2.63104 9.65165L1.0205 14.4952C0.973251 14.6331 1.00917 14.7858 1.11294 14.8881C1.18585 14.9601 1.2842 15.0004 1.38652 15C1.42835 14.9993 1.4698 14.9928 1.50982 14.9807L6.34917 13.3662C6.35291 13.3662 6.35291 13.3662 6.35689 13.3624C6.36906 13.3588 6.38075 13.3536 6.39148 13.3469C6.39449 13.3465 6.39714 13.3452 6.39931 13.3431C6.41076 13.3354 6.42619 13.3276 6.43776 13.3199C6.44921 13.3123 6.4609 13.3007 6.47247 13.293C6.47632 13.289 6.48006 13.289 6.48006 13.2853C6.48404 13.2814 6.49175 13.2777 6.49561 13.2698L14.4365 5.32821C15.1878 4.57547 15.1878 3.35651 14.4365 2.60389L13.3924 1.56356ZM6.22588 12.4606L3.54424 9.77881L10.256 3.06638L12.9377 5.74815L6.22588 12.4606ZM3.16653 10.4917L5.50925 12.8345L1.99143 14.0058L3.16653 10.4917ZM13.8933 4.78869L13.4848 5.20104L10.8031 2.51903L11.2155 2.10681C11.6666 1.65601 12.3979 1.65601 12.8491 2.10681L13.897 3.15485C14.3448 3.60806 14.3431 4.33765 13.8933 4.78869Z" stroke="#C4C4C4" stroke-width="0.3" mask="url(#path-1-outside-1_117:2445)"/>
</svg>
