<svg width="154" height="182" fill="none" xmlns="http://www.w3.org/2000/svg"><path d="M76.807 170.807c42.419 0 76.807-34.388 76.807-76.807 0-42.42-34.388-76.807-76.807-76.807C34.387 17.193 0 51.581 0 94c0 42.419 34.388 76.807 76.807 76.807Z" fill="url(#a)"/><g filter="url(#b)"><path d="M120.843 61.23H32.771a5.12 5.12 0 0 0-5.12 5.12v107.529A5.12 5.12 0 0 0 32.77 179h88.072a5.121 5.121 0 0 0 5.121-5.121V66.349a5.12 5.12 0 0 0-5.121-5.12Z" fill="#fff"/></g><path d="M66.566 76.59H39.94a3.072 3.072 0 1 0 0 6.145h26.626a3.072 3.072 0 1 0 0-6.145Z" fill="#D0D5DD"/><path d="M85 89.903H39.94a3.072 3.072 0 1 0 0 6.145H85a3.072 3.072 0 0 0 0-6.145Z" fill="#EAECF0"/><path d="M66.566 104.241H39.94a3.073 3.073 0 0 0 0 6.145h26.626a3.073 3.073 0 0 0 0-6.145Z" fill="#D0D5DD"/><path d="M85 117.555H39.94a3.072 3.072 0 1 0 0 6.144H85a3.072 3.072 0 1 0 0-6.144Z" fill="#EAECF0"/><path d="M66.566 131.892H39.94a3.072 3.072 0 1 0 0 6.145h26.626a3.073 3.073 0 0 0 0-6.145Z" fill="#D0D5DD"/><path d="M85 145.206H39.94a3.072 3.072 0 1 0 0 6.144H85a3.072 3.072 0 1 0 0-6.144Z" fill="#EAECF0"/><g filter="url(#c)"><path d="M120.843 9H32.771a5.12 5.12 0 0 0-5.12 5.12v30.723a5.12 5.12 0 0 0 5.12 5.12h88.072a5.12 5.12 0 0 0 5.12-5.12V14.12a5.12 5.12 0 0 0-5.12-5.12Z" fill="#98A2B3"/></g><path d="M66.566 20.266H39.94a3.072 3.072 0 1 0 0 6.144h26.626a3.072 3.072 0 0 0 0-6.144Z" fill="#EAECF0"/><path d="M85 33.579H39.94a3.072 3.072 0 1 0 0 6.145H85a3.072 3.072 0 0 0 0-6.145Z" fill="#fff"/><defs><filter id="b" x="21.651" y="52.229" width="110.313" height="129.771" filterUnits="userSpaceOnUse" color-interpolation-filters="sRGB"><feFlood flood-opacity="0" result="BackgroundImageFix"/><feColorMatrix in="SourceAlpha" values="0 0 0 0 0 0 0 0 0 0 0 0 0 0 0 0 0 0 127 0" result="hardAlpha"/><feOffset dy="-3"/><feGaussianBlur stdDeviation="3"/><feColorMatrix values="0 0 0 0 0.788235 0 0 0 0 0.803922 0 0 0 0 0.85098 0 0 0 0.349 0"/><feBlend in2="BackgroundImageFix" result="effect1_dropShadow_1654_160"/><feBlend in="SourceGraphic" in2="effect1_dropShadow_1654_160" result="shape"/></filter><filter id="c" x="21.651" y="0" width="110.313" height="52.964" filterUnits="userSpaceOnUse" color-interpolation-filters="sRGB"><feFlood flood-opacity="0" result="BackgroundImageFix"/><feColorMatrix in="SourceAlpha" values="0 0 0 0 0 0 0 0 0 0 0 0 0 0 0 0 0 0 127 0" result="hardAlpha"/><feOffset dy="-3"/><feGaussianBlur stdDeviation="3"/><feColorMatrix values="0 0 0 0 0.788235 0 0 0 0 0.803922 0 0 0 0 0.85098 0 0 0 0.349 0"/><feBlend in2="BackgroundImageFix" result="effect1_dropShadow_1654_160"/><feBlend in="SourceGraphic" in2="effect1_dropShadow_1654_160" result="shape"/></filter><linearGradient id="a" x1="76.807" y1="17.193" x2="76.807" y2="170.807" gradientUnits="userSpaceOnUse"><stop stop-color="#EAECF0"/><stop offset="1" stop-color="#EAECF0"/></linearGradient></defs></svg>