<svg width="48" height="48" viewBox="0 0 52 52" fill="none" xmlns="http://www.w3.org/2000/svg">
<path d="M44.373 7.603C34.236 -2.534 17.741 -2.535 7.603 7.603C-2.535 17.741 -2.534 34.235 7.603 44.373C17.74 54.511 34.235 54.511 44.373 44.373C54.51 34.235 54.51 17.74 44.373 7.603ZM36.241 36.241C35.46 37.022 34.194 37.022 33.413 36.241L25.988 28.816L18.21 36.594C17.429 37.375 16.163 37.375 15.382 36.594C14.601 35.813 14.601 34.547 15.382 33.766L23.16 25.988L15.735 18.563C14.954 17.782 14.954 16.515 15.735 15.735C16.516 14.954 17.782 14.954 18.563 15.735L25.988 23.16L33.059 16.089C33.84 15.308 35.106 15.308 35.887 16.089C36.668 16.87 36.668 18.136 35.887 18.917L28.816 25.988L36.241 33.413C37.022 34.194 37.022 35.46 36.241 36.241Z" fill="#FF5555"/>
</svg>
