<svg width="120" height="120" viewBox="0 0 120 120" fill="none" xmlns="http://www.w3.org/2000/svg">
<path d="M42.9245 105.141L42.8992 104.992L42.7554 104.945C38.6301 103.601 35.6406 99.7205 35.6406 95.1541V88.1228C35.6406 81.5978 33.0912 75.0041 28.6476 70.0089C19.6919 59.941 16.1857 46.4731 19.0311 33.0534C22.3993 17.1685 35.202 4.4882 50.989 1.18941C77.7201 -4.39515 101.937 15.727 101.937 42.1853C101.937 52.3411 98.2507 62.1403 91.5562 69.7776C86.9188 75.0684 84.3593 81.5824 84.3593 88.1226V95.1538C84.3593 99.7205 81.3698 103.601 77.2444 104.945L77.1006 104.992L77.0754 105.141C75.7046 113.24 68.6755 119.748 59.9999 119.748C51.3221 119.748 44.2948 113.238 42.9245 105.141ZM50.0552 105.428H49.7028L49.8192 105.76C51.3141 110.03 55.3644 113.217 59.9999 113.217C64.6354 113.217 68.6858 110.03 70.1804 105.76L70.2969 105.428H69.9445H50.0552ZM42.4218 91.3884H42.1718V91.6384V95.1541C42.1718 97.2307 43.8609 98.9197 45.9374 98.9197H74.0624C76.139 98.9197 77.8281 97.2307 77.8281 95.1541V91.6384V91.3884H77.5781H42.4218ZM77.7714 84.8572H77.9954L78.0199 84.6345C78.7795 77.7281 81.7735 71.0302 86.6447 65.4728C92.2946 59.0269 95.4062 50.7566 95.4062 42.1853C95.4062 19.8671 74.9861 2.84719 52.3251 7.58287C39.0447 10.3577 28.2344 21.1361 25.4204 34.4082C23.0111 45.7701 25.965 57.166 33.528 65.668C38.2345 70.9593 41.2218 77.7224 41.9807 84.6345L42.0051 84.8572H42.2292H77.7714Z" fill="#DFDFDF" stroke="white" stroke-width="0.5"/>
<path d="M3.51562 42.4351H10.5469C12.3504 42.4351 13.8125 43.8972 13.8125 45.7007C13.8125 47.5042 12.3504 48.9663 10.5469 48.9663H3.51562C1.71213 48.9663 0.25 47.5042 0.25 45.7007C0.25 43.8972 1.71213 42.4351 3.51562 42.4351Z" fill="#DFDFDF" stroke="white" stroke-width="0.5"/>
<path d="M6.85427 19.812L6.85429 19.812L11.8261 24.7838C13.1014 26.0591 13.1014 28.1267 11.8261 29.402L11.8261 29.402C10.5507 30.6776 8.48297 30.6774 7.20786 29.402L7.20784 29.402L2.23604 24.4302C0.960707 23.1549 0.960707 21.0873 2.23604 19.812C3.51139 18.5366 5.57918 18.5366 6.85427 19.812Z" fill="#DFDFDF" stroke="white" stroke-width="0.5"/>
<path d="M7.20784 61.9995L7.20786 61.9995C8.48295 60.7241 10.5507 60.7241 11.8261 61.9995C13.1014 63.2748 13.1014 65.3424 11.8261 66.6177L6.85429 71.5895L6.85427 71.5895C5.57895 72.8651 3.51117 72.8649 2.23606 71.5895L2.23604 71.5895C0.960707 70.3142 0.960706 68.2466 2.23604 66.9713L7.20784 61.9995Z" fill="#DFDFDF" stroke="white" stroke-width="0.5"/>
<path d="M109.453 42.4351H116.484C118.288 42.4351 119.75 43.8972 119.75 45.7007C119.75 47.5042 118.288 48.9663 116.484 48.9663H109.453C107.65 48.9663 106.188 47.5042 106.188 45.7007C106.188 43.8972 107.65 42.4351 109.453 42.4351Z" fill="#DFDFDF" stroke="white" stroke-width="0.5"/>
<path d="M117.764 19.812L117.764 19.812C119.039 21.0873 119.039 23.1549 117.764 24.4302L112.792 29.402C111.516 30.6773 109.449 30.6771 108.174 29.402C106.898 28.1267 106.898 26.0591 108.174 24.7838L113.145 19.812C114.421 18.5366 116.488 18.5366 117.764 19.812Z" fill="#DFDFDF" stroke="white" stroke-width="0.5"/>
<path d="M112.792 61.9995L112.792 61.9995L117.764 66.9713C119.039 68.2466 119.039 70.3142 117.764 71.5895C116.488 72.8648 114.42 72.8646 113.145 71.5895L108.174 66.6177C106.898 65.3424 106.898 63.2748 108.174 61.9995C109.449 60.7241 111.517 60.7241 112.792 61.9995Z" fill="#DFDFDF" stroke="white" stroke-width="0.5"/>
<path d="M49.0051 38.5456C49.0388 36.4393 49.5359 34.5942 50.4964 33.0102C51.4737 31.4094 52.8639 30.1625 54.6669 29.2694C56.4867 28.3595 58.6942 27.9045 61.2891 27.9045C63.6988 27.9045 65.8051 28.3258 67.6081 29.1683C69.4111 29.994 70.8097 31.1483 71.8038 32.6311C72.798 34.0971 73.2951 35.8074 73.2951 37.7621C73.2951 39.6493 72.8401 41.2838 71.9302 42.6656C71.0203 44.0473 69.6723 45.2605 67.8861 46.3053C66.7571 46.9456 65.8809 47.5438 65.2574 48.0998C64.6508 48.6391 64.2211 49.212 63.9684 49.8186C63.7156 50.4084 63.5892 51.1077 63.5892 51.9165V53.2561H56.8912L56.8406 51.8659C56.7395 50.5179 56.8238 49.3468 57.0934 48.3526C57.3798 47.3584 57.8769 46.4738 58.5846 45.6987C59.2924 44.9235 60.2276 44.1905 61.3902 43.4997C62.4687 42.8425 63.3196 42.2527 63.9431 41.7304C64.5666 41.1912 65.0047 40.6351 65.2574 40.0622C65.5102 39.4724 65.6366 38.7815 65.6366 37.9896C65.6366 37.1976 65.4344 36.5067 65.0299 35.9169C64.6255 35.3103 64.061 34.8385 63.3365 34.5015C62.6287 34.1476 61.7946 33.9707 60.8342 33.9707C59.385 33.9707 58.2139 34.3836 57.3208 35.2092C56.4278 36.0349 55.9391 37.147 55.8549 38.5456H49.0051ZM60.5056 65.4643C59.0901 65.4643 57.9696 65.0851 57.1439 64.3269C56.3182 63.5517 55.9054 62.4986 55.9054 61.1674C55.9054 59.8194 56.3182 58.7662 57.1439 58.0079C57.9696 57.2328 59.0901 56.8453 60.5056 56.8453C61.921 56.8453 63.0332 57.2328 63.842 58.0079C64.6677 58.7662 65.0805 59.8194 65.0805 61.1674C65.0805 62.4986 64.6677 63.5517 63.842 64.3269C63.0332 65.0851 61.921 65.4643 60.5056 65.4643Z" fill="#DFDFDF"/>
</svg>
