<svg width="118" height="118" viewBox="0 0 118 118" fill="none" xmlns="http://www.w3.org/2000/svg">
<circle cx="59" cy="59" r="56" stroke="#DFDFDF" stroke-width="6"/>
<path d="M57.2699 67.9C55.3541 67.9 53.7866 66.2819 53.7866 64.3042L51 38.5958C51 36.6181 52.5675 35 54.4833 35H64.4367C66.3525 35 67.92 36.6181 67.92 38.5958L65.1334 64.3042C65.1334 66.2819 63.5659 67.9 61.6501 67.9H57.2699Z" fill="#DFDFDF"/>
<path d="M64.16 79.0574C64.16 80.6755 62.956 82 61.4851 82H57.4349C55.9641 82 54.76 80.6755 54.76 79.0574V74.6026C54.76 72.9842 55.9641 71.66 57.4349 71.66H61.4851C62.956 71.66 64.16 72.9842 64.16 74.6026V79.0574Z" fill="#DFDFDF"/>
</svg>
