<svg width="15" height="15" viewBox="0 0 15 15" fill="none" xmlns="http://www.w3.org/2000/svg">
<path fill-rule="evenodd" clip-rule="evenodd" d="M11.9891 6.99457C11.9891 9.75299 9.75299 11.9891 6.99457 11.9891C4.23614 11.9891 2 9.75299 2 6.99457C2 4.23614 4.23614 2 6.99457 2C9.75299 2 11.9891 4.23614 11.9891 6.99457ZM11.0234 11.4334C9.95908 12.4001 8.54561 12.9891 6.99457 12.9891C3.68386 12.9891 1 10.3053 1 6.99457C1 3.68386 3.68386 1 6.99457 1C10.3053 1 12.9891 3.68386 12.9891 6.99457C12.9891 8.54563 12.4 9.95911 11.4334 11.0235C11.511 11.0375 11.5844 11.0775 11.6393 11.1423L13.9824 13.9042C14.1084 14.0527 14.0901 14.2752 13.9416 14.4012C13.7931 14.5272 13.5706 14.5089 13.4446 14.3604L11.1015 11.5986C11.06 11.5495 11.0341 11.4925 11.0234 11.4334Z" fill="#A3A3A3"/>
<path d="M11.0234 11.4334L11.2203 11.3979L11.1561 11.0428L10.889 11.2854L11.0234 11.4334ZM11.4334 11.0235L11.2853 10.889L11.0428 11.1561L11.3978 11.2203L11.4334 11.0235ZM11.6393 11.1423L11.4868 11.2717L11.6393 11.1423ZM13.9824 13.9042L13.8299 14.0336L13.9824 13.9042ZM13.9416 14.4012L13.8122 14.2487L13.9416 14.4012ZM13.4446 14.3604L13.2921 14.4898L13.4446 14.3604ZM11.1015 11.5986L10.949 11.7279L10.949 11.7279L11.1015 11.5986ZM6.99457 12.1891C9.86345 12.1891 12.1891 9.86345 12.1891 6.99457H11.7891C11.7891 9.64253 9.64253 11.7891 6.99457 11.7891V12.1891ZM1.8 6.99457C1.8 9.86345 4.12569 12.1891 6.99457 12.1891V11.7891C4.3466 11.7891 2.2 9.64253 2.2 6.99457H1.8ZM6.99457 1.8C4.12569 1.8 1.8 4.12569 1.8 6.99457H2.2C2.2 4.3466 4.3466 2.2 6.99457 2.2V1.8ZM12.1891 6.99457C12.1891 4.12569 9.86345 1.8 6.99457 1.8V2.2C9.64253 2.2 11.7891 4.3466 11.7891 6.99457H12.1891ZM6.99457 13.1891C8.59724 13.1891 10.0582 12.5802 11.1579 11.5815L10.889 11.2854C9.85998 12.2199 8.49399 12.7891 6.99457 12.7891V13.1891ZM0.8 6.99457C0.8 10.4157 3.5734 13.1891 6.99457 13.1891V12.7891C3.79432 12.7891 1.2 10.1948 1.2 6.99457H0.8ZM6.99457 0.8C3.5734 0.8 0.8 3.5734 0.8 6.99457H1.2C1.2 3.79432 3.79432 1.2 6.99457 1.2V0.8ZM13.1891 6.99457C13.1891 3.5734 10.4157 0.8 6.99457 0.8V1.2C10.1948 1.2 12.7891 3.79432 12.7891 6.99457H13.1891ZM11.5815 11.1579C12.5802 10.0582 13.1891 8.59726 13.1891 6.99457H12.7891C12.7891 8.494 12.2199 9.86002 11.2853 10.889L11.5815 11.1579ZM11.3978 11.2203C11.4315 11.2264 11.4629 11.2435 11.4868 11.2717L11.7918 11.0129C11.7058 10.9115 11.5905 10.8486 11.469 10.8267L11.3978 11.2203ZM11.4868 11.2717L13.8299 14.0336L14.1349 13.7748L11.7918 11.0129L11.4868 11.2717ZM13.8299 14.0336C13.8844 14.0979 13.8765 14.1942 13.8122 14.2487L14.071 14.5537C14.3037 14.3563 14.3323 14.0075 14.1349 13.7748L13.8299 14.0336ZM13.8122 14.2487C13.7479 14.3032 13.6516 14.2953 13.5971 14.231L13.2921 14.4898C13.4895 14.7226 13.8383 14.7512 14.071 14.5537L13.8122 14.2487ZM13.5971 14.231L11.2541 11.4692L10.949 11.7279L13.2921 14.4898L13.5971 14.231ZM11.2541 11.4692C11.2358 11.4477 11.2248 11.4232 11.2203 11.3979L10.8266 11.469C10.8434 11.5617 10.8841 11.6514 10.949 11.7279L11.2541 11.4692Z" fill="#A3A3A3"/>
</svg>
